<svg xmlns="http://www.w3.org/2000/svg" viewBox="0 0 96.02 96.02"><defs><style>.cls-1{fill:#eee;}.cls-2{fill:#017bc7;}</style></defs><title>Layer 1 (4)</title><g id="Layer_2" data-name="Layer 2"><g id="Layer_1-2" data-name="Layer 1"><circle class="cls-1" cx="48.01" cy="48.01" r="48.01"/><path class="cls-2" d="M69.06,29.28H63.18V27.16a2.45,2.45,0,0,0-2.45-2.45h-4a2.45,2.45,0,0,0-2.46,2.45v2.13H42.13V27.16a2.45,2.45,0,0,0-2.45-2.45h-4a2.45,2.45,0,0,0-2.45,2.45v2.13H27.3a2.45,2.45,0,0,0-2.45,2.45V69.16a2.45,2.45,0,0,0,2.45,2.45H69.06a2.45,2.45,0,0,0,2.45-2.45V31.73A2.45,2.45,0,0,0,69.06,29.28ZM57.2,27.65h3.06v6H57.2Zm-21.08,0h3.07v6H36.12Zm.31,35.77H33.49V59.5h2.94Zm0-8.82H33.49V50.68h2.94Zm8.82,8.82H42.31V59.5h2.94Zm0-8.82H42.31V50.68h2.94Zm8.82,8.82H51.13V59.5h2.94Zm0-8.82H51.13V50.68h2.94Zm8.82,8.82H60V59.5h2.94Zm0-8.82H60V50.68h2.94Zm5.68-11.86H27.82V32.22h5.39v2a2.44,2.44,0,0,0,2.45,2.45h4a2.45,2.45,0,0,0,2.45-2.45v-2h12.1v2a2.45,2.45,0,0,0,2.46,2.45h4a2.45,2.45,0,0,0,2.45-2.45v-2h5.39Z"/></g></g></svg>