<svg xmlns="http://www.w3.org/2000/svg" viewBox="0 0 96.02 96.02"><defs><style>.cls-1{fill:#eee;}.cls-2{fill:#017bc7;}</style></defs><title>Layer 1 (3)</title><g id="Layer_2" data-name="Layer 2"><g id="Layer_1-2" data-name="Layer 1"><circle class="cls-1" cx="48.01" cy="48.01" r="48.01"/><path class="cls-2" d="M26.47,66.51a25.38,25.38,0,0,1-6-16.86,8.45,8.45,0,0,1,5-7.53l.61-.27a3.1,3.1,0,0,1,3.71.95l4.17,5.44A2.87,2.87,0,0,1,33.8,52L31,54.83A12.73,12.73,0,0,0,33.81,61l.16.18a12.86,12.86,0,0,0,1.65,1.65l.18.16A12.84,12.84,0,0,0,42,65.83L44.79,63a2.87,2.87,0,0,1,3.78-.25L54,66.93A3.1,3.1,0,0,1,55,70.64l-.26.62a8.47,8.47,0,0,1-7.54,5h-.52a25.41,25.41,0,0,1-16.34-6L30,70.09a26.88,26.88,0,0,1-3.24-3.25ZM70.09,26.74a18.51,18.51,0,0,1-22.56,29L41.46,57.5a1.71,1.71,0,0,1-2.13-1.17,1.57,1.57,0,0,1,0-1l1.76-6.07a18.51,18.51,0,0,1,29-22.56ZM51.35,39.83A2.36,2.36,0,1,0,49,42.19h0A2.36,2.36,0,0,0,51.35,39.83Zm8,0A2.36,2.36,0,1,0,57,42.19a2.36,2.36,0,0,0,2.36-2.36Zm8,0A2.36,2.36,0,1,0,65,42.19a2.36,2.36,0,0,0,2.36-2.36Z"/></g></g></svg>