<svg xmlns="http://www.w3.org/2000/svg" viewBox="0 0 62.15 67"><title>Layer 1</title><g id="Layer_2" data-name="Layer 2"><g id="Layer_1-2" data-name="Layer 1"><path d="M60.9,11a4.76,4.76,0,0,0-3.4-1.4H52.7V6a5.76,5.76,0,0,0-1.8-4.2A5.76,5.76,0,0,0,46.7,0H44.3a5.76,5.76,0,0,0-4.2,1.8A5.76,5.76,0,0,0,38.3,6V9.6H24V6a5.76,5.76,0,0,0-1.8-4.2A5.76,5.76,0,0,0,18,0H15.6a5.76,5.76,0,0,0-4.2,1.8A5.76,5.76,0,0,0,9.6,6V9.6H4.8A4.94,4.94,0,0,0,1.4,11,4.76,4.76,0,0,0,0,14.4V62.2a4.94,4.94,0,0,0,1.4,3.4A4.76,4.76,0,0,0,4.8,67H57.3a4.94,4.94,0,0,0,3.4-1.4,4.39,4.39,0,0,0,1.4-3.4V14.4A3.75,3.75,0,0,0,60.9,11ZM43.2,7.7H48v7.1H43.2Zm-28.6,0h4.8v7.1H14.6Zm43,54.5H5.1V24H57.6Z"/><path d="M20.6,45.4H42.1a1.61,1.61,0,0,0,.9-.3,1.22,1.22,0,0,0,.3-.9V41.8a1.61,1.61,0,0,0-.3-.9,1.22,1.22,0,0,0-.9-.3H20.6a1.61,1.61,0,0,0-.9.3,1.22,1.22,0,0,0-.3.9v2.4a1.61,1.61,0,0,0,.3.9A1.22,1.22,0,0,0,20.6,45.4Z"/></g></g></svg>